<svg width="171" height="32" viewBox="0 0 171 32" fill="none" xmlns="http://www.w3.org/2000/svg">
<path d="M0.528409 31V1.90909H19.7898V6.98011H6.67898V13.9119H18.5114V18.983H6.67898V31H0.528409ZM23.8132 31V9.18182H29.8643V31H23.8132ZM26.853 6.36932C25.9534 6.36932 25.1816 6.07102 24.5376 5.47443C23.9032 4.86837 23.5859 4.14394 23.5859 3.30114C23.5859 2.4678 23.9032 1.75284 24.5376 1.15625C25.1816 0.550188 25.9534 0.247158 26.853 0.247158C27.7526 0.247158 28.5196 0.550188 29.1541 1.15625C29.7981 1.75284 30.12 2.4678 30.12 3.30114C30.12 4.14394 29.7981 4.86837 29.1541 5.47443C28.5196 6.07102 27.7526 6.36932 26.853 6.36932ZM34.7116 31V9.18182H40.5781V12.9886H40.8054C41.2031 11.6345 41.8707 10.6117 42.8082 9.92045C43.7457 9.2197 44.8253 8.86932 46.0469 8.86932C46.3499 8.86932 46.6766 8.88826 47.027 8.92614C47.3774 8.96402 47.6851 9.0161 47.9503 9.08239V14.4517C47.6662 14.3665 47.2732 14.2907 46.7713 14.2244C46.2694 14.1581 45.8101 14.125 45.3935 14.125C44.5033 14.125 43.7079 14.3191 43.0071 14.7074C42.3158 15.0862 41.7666 15.6165 41.3594 16.2983C40.9616 16.9801 40.7628 17.7661 40.7628 18.6562V31H34.7116ZM60.0064 31.4261C57.7621 31.4261 55.8303 30.9716 54.2109 30.0625C52.6011 29.1439 51.3606 27.8466 50.4893 26.1705C49.6181 24.4848 49.1825 22.4915 49.1825 20.1903C49.1825 17.946 49.6181 15.9763 50.4893 14.2812C51.3606 12.5862 52.5869 11.2652 54.1683 10.3182C55.7592 9.37121 57.6248 8.89773 59.7649 8.89773C61.2043 8.89773 62.5443 9.12973 63.7848 9.59375C65.0348 10.0483 66.1238 10.7348 67.0518 11.6534C67.9893 12.572 68.7185 13.7273 69.2393 15.1193C69.7602 16.5019 70.0206 18.1212 70.0206 19.9773V21.6392H51.5973V17.8892H64.3246C64.3246 17.018 64.1352 16.2462 63.7564 15.5739C63.3776 14.9015 62.852 14.3759 62.1797 13.9972C61.5168 13.6089 60.745 13.4148 59.8643 13.4148C58.9458 13.4148 58.1314 13.6278 57.4212 14.054C56.7204 14.4706 56.1712 15.0341 55.7734 15.7443C55.3757 16.4451 55.1721 17.2263 55.1626 18.0881V21.6534C55.1626 22.733 55.3615 23.6657 55.7592 24.4517C56.1664 25.2377 56.7393 25.8438 57.478 26.2699C58.2166 26.696 59.0926 26.9091 60.1058 26.9091C60.7782 26.9091 61.3937 26.8144 61.9524 26.625C62.5111 26.4356 62.9893 26.1515 63.3871 25.7727C63.7848 25.3939 64.0878 24.9299 64.2962 24.3807L69.8928 24.75C69.6087 26.0947 69.0263 27.2689 68.1456 28.2727C67.2744 29.267 66.1475 30.0436 64.7649 30.6023C63.3918 31.1515 61.8056 31.4261 60.0064 31.4261ZM84.3956 31H74.0831V1.90909H84.4808C87.407 1.90909 89.9259 2.49148 92.0376 3.65625C94.1494 4.81155 95.7734 6.47348 96.9098 8.64205C98.0556 10.8106 98.6286 13.4053 98.6286 16.4261C98.6286 19.4564 98.0556 22.0606 96.9098 24.2386C95.7734 26.4167 94.1399 28.0881 92.0092 29.2528C89.888 30.4176 87.3501 31 84.3956 31ZM80.2337 25.7301H84.1399C85.9581 25.7301 87.4875 25.4081 88.728 24.7642C89.978 24.1108 90.9155 23.1023 91.5405 21.7386C92.175 20.3655 92.4922 18.5947 92.4922 16.4261C92.4922 14.2765 92.175 12.5199 91.5405 11.1562C90.9155 9.79261 89.9827 8.78883 88.7422 8.14489C87.5017 7.50095 85.9723 7.17898 84.1541 7.17898H80.2337V25.7301ZM113.014 31.4261C110.77 31.4261 108.838 30.9716 107.219 30.0625C105.609 29.1439 104.368 27.8466 103.497 26.1705C102.626 24.4848 102.19 22.4915 102.19 20.1903C102.19 17.946 102.626 15.9763 103.497 14.2812C104.368 12.5862 105.595 11.2652 107.176 10.3182C108.767 9.37121 110.633 8.89773 112.773 8.89773C114.212 8.89773 115.552 9.12973 116.793 9.59375C118.043 10.0483 119.132 10.7348 120.06 11.6534C120.997 12.572 121.726 13.7273 122.247 15.1193C122.768 16.5019 123.028 18.1212 123.028 19.9773V21.6392H104.605V17.8892H117.332C117.332 17.018 117.143 16.2462 116.764 15.5739C116.385 14.9015 115.86 14.3759 115.188 13.9972C114.525 13.6089 113.753 13.4148 112.872 13.4148C111.954 13.4148 111.139 13.6278 110.429 14.054C109.728 14.4706 109.179 15.0341 108.781 15.7443C108.384 16.4451 108.18 17.2263 108.17 18.0881V21.6534C108.17 22.733 108.369 23.6657 108.767 24.4517C109.174 25.2377 109.747 25.8438 110.486 26.2699C111.224 26.696 112.1 26.9091 113.114 26.9091C113.786 26.9091 114.402 26.8144 114.96 26.625C115.519 26.4356 115.997 26.1515 116.395 25.7727C116.793 25.3939 117.096 24.9299 117.304 24.3807L122.901 24.75C122.616 26.0947 122.034 27.2689 121.153 28.2727C120.282 29.267 119.155 30.0436 117.773 30.6023C116.4 31.1515 114.813 31.4261 113.014 31.4261ZM145.131 15.4034L139.591 15.7443C139.496 15.2708 139.293 14.8447 138.98 14.4659C138.668 14.0777 138.256 13.7699 137.744 13.5426C137.242 13.3059 136.641 13.1875 135.94 13.1875C135.003 13.1875 134.212 13.3864 133.568 13.7841C132.924 14.1723 132.602 14.6932 132.602 15.3466C132.602 15.8674 132.811 16.3078 133.227 16.6676C133.644 17.0275 134.359 17.3163 135.372 17.5341L139.321 18.3295C141.442 18.7652 143.024 19.4659 144.065 20.4318C145.107 21.3977 145.628 22.6667 145.628 24.2386C145.628 25.6686 145.206 26.9233 144.364 28.0028C143.53 29.0824 142.384 29.9252 140.926 30.5312C139.477 31.1278 137.806 31.4261 135.912 31.4261C133.024 31.4261 130.723 30.8248 129.009 29.6222C127.304 28.41 126.305 26.7623 126.011 24.679L131.963 24.3665C132.143 25.2472 132.579 25.9195 133.27 26.3835C133.961 26.8381 134.847 27.0653 135.926 27.0653C136.987 27.0653 137.839 26.8617 138.483 26.4545C139.136 26.0379 139.468 25.5028 139.477 24.8494C139.468 24.3002 139.236 23.8504 138.781 23.5C138.327 23.1402 137.626 22.8655 136.679 22.6761L132.901 21.9233C130.77 21.4972 129.184 20.7585 128.142 19.7074C127.11 18.6562 126.594 17.3163 126.594 15.6875C126.594 14.286 126.973 13.0786 127.73 12.0653C128.497 11.0521 129.572 10.2708 130.955 9.72159C132.347 9.17235 133.975 8.89773 135.841 8.89773C138.597 8.89773 140.765 9.48011 142.347 10.6449C143.938 11.8097 144.866 13.3958 145.131 15.4034ZM154.921 24.7216L154.935 17.4631H155.816L162.805 9.18182H169.751L160.362 20.1477H158.927L154.921 24.7216ZM149.438 31V1.90909H155.489V31H149.438ZM163.075 31L156.654 21.4972L160.688 17.2216L170.163 31H163.075Z" fill="black"/>
<path d="M0.528409 31V1.90909H19.7898V6.98011H6.67898V13.9119H18.5114V18.983H6.67898V31H0.528409ZM23.8132 31V9.18182H29.8643V31H23.8132ZM26.853 6.36932C25.9534 6.36932 25.1816 6.07102 24.5376 5.47443C23.9032 4.86837 23.5859 4.14394 23.5859 3.30114C23.5859 2.4678 23.9032 1.75284 24.5376 1.15625C25.1816 0.550188 25.9534 0.247158 26.853 0.247158C27.7526 0.247158 28.5196 0.550188 29.1541 1.15625C29.7981 1.75284 30.12 2.4678 30.12 3.30114C30.12 4.14394 29.7981 4.86837 29.1541 5.47443C28.5196 6.07102 27.7526 6.36932 26.853 6.36932ZM34.7116 31V9.18182H40.5781V12.9886H40.8054C41.2031 11.6345 41.8707 10.6117 42.8082 9.92045C43.7457 9.2197 44.8253 8.86932 46.0469 8.86932C46.3499 8.86932 46.6766 8.88826 47.027 8.92614C47.3774 8.96402 47.6851 9.0161 47.9503 9.08239V14.4517C47.6662 14.3665 47.2732 14.2907 46.7713 14.2244C46.2694 14.1581 45.8101 14.125 45.3935 14.125C44.5033 14.125 43.7079 14.3191 43.0071 14.7074C42.3158 15.0862 41.7666 15.6165 41.3594 16.2983C40.9616 16.9801 40.7628 17.7661 40.7628 18.6562V31H34.7116ZM60.0064 31.4261C57.7621 31.4261 55.8303 30.9716 54.2109 30.0625C52.6011 29.1439 51.3606 27.8466 50.4893 26.1705C49.6181 24.4848 49.1825 22.4915 49.1825 20.1903C49.1825 17.946 49.6181 15.9763 50.4893 14.2812C51.3606 12.5862 52.5869 11.2652 54.1683 10.3182C55.7592 9.37121 57.6248 8.89773 59.7649 8.89773C61.2043 8.89773 62.5443 9.12973 63.7848 9.59375C65.0348 10.0483 66.1238 10.7348 67.0518 11.6534C67.9893 12.572 68.7185 13.7273 69.2393 15.1193C69.7602 16.5019 70.0206 18.1212 70.0206 19.9773V21.6392H51.5973V17.8892H64.3246C64.3246 17.018 64.1352 16.2462 63.7564 15.5739C63.3776 14.9015 62.852 14.3759 62.1797 13.9972C61.5168 13.6089 60.745 13.4148 59.8643 13.4148C58.9458 13.4148 58.1314 13.6278 57.4212 14.054C56.7204 14.4706 56.1712 15.0341 55.7734 15.7443C55.3757 16.4451 55.1721 17.2263 55.1626 18.0881V21.6534C55.1626 22.733 55.3615 23.6657 55.7592 24.4517C56.1664 25.2377 56.7393 25.8438 57.478 26.2699C58.2166 26.696 59.0926 26.9091 60.1058 26.9091C60.7782 26.9091 61.3937 26.8144 61.9524 26.625C62.5111 26.4356 62.9893 26.1515 63.3871 25.7727C63.7848 25.3939 64.0878 24.9299 64.2962 24.3807L69.8928 24.75C69.6087 26.0947 69.0263 27.2689 68.1456 28.2727C67.2744 29.267 66.1475 30.0436 64.7649 30.6023C63.3918 31.1515 61.8056 31.4261 60.0064 31.4261ZM84.3956 31H74.0831V1.90909H84.4808C87.407 1.90909 89.9259 2.49148 92.0376 3.65625C94.1494 4.81155 95.7734 6.47348 96.9098 8.64205C98.0556 10.8106 98.6286 13.4053 98.6286 16.4261C98.6286 19.4564 98.0556 22.0606 96.9098 24.2386C95.7734 26.4167 94.1399 28.0881 92.0092 29.2528C89.888 30.4176 87.3501 31 84.3956 31ZM80.2337 25.7301H84.1399C85.9581 25.7301 87.4875 25.4081 88.728 24.7642C89.978 24.1108 90.9155 23.1023 91.5405 21.7386C92.175 20.3655 92.4922 18.5947 92.4922 16.4261C92.4922 14.2765 92.175 12.5199 91.5405 11.1562C90.9155 9.79261 89.9827 8.78883 88.7422 8.14489C87.5017 7.50095 85.9723 7.17898 84.1541 7.17898H80.2337V25.7301ZM113.014 31.4261C110.77 31.4261 108.838 30.9716 107.219 30.0625C105.609 29.1439 104.368 27.8466 103.497 26.1705C102.626 24.4848 102.19 22.4915 102.19 20.1903C102.19 17.946 102.626 15.9763 103.497 14.2812C104.368 12.5862 105.595 11.2652 107.176 10.3182C108.767 9.37121 110.633 8.89773 112.773 8.89773C114.212 8.89773 115.552 9.12973 116.793 9.59375C118.043 10.0483 119.132 10.7348 120.06 11.6534C120.997 12.572 121.726 13.7273 122.247 15.1193C122.768 16.5019 123.028 18.1212 123.028 19.9773V21.6392H104.605V17.8892H117.332C117.332 17.018 117.143 16.2462 116.764 15.5739C116.385 14.9015 115.86 14.3759 115.188 13.9972C114.525 13.6089 113.753 13.4148 112.872 13.4148C111.954 13.4148 111.139 13.6278 110.429 14.054C109.728 14.4706 109.179 15.0341 108.781 15.7443C108.384 16.4451 108.18 17.2263 108.17 18.0881V21.6534C108.17 22.733 108.369 23.6657 108.767 24.4517C109.174 25.2377 109.747 25.8438 110.486 26.2699C111.224 26.696 112.1 26.9091 113.114 26.9091C113.786 26.9091 114.402 26.8144 114.96 26.625C115.519 26.4356 115.997 26.1515 116.395 25.7727C116.793 25.3939 117.096 24.9299 117.304 24.3807L122.901 24.75C122.616 26.0947 122.034 27.2689 121.153 28.2727C120.282 29.267 119.155 30.0436 117.773 30.6023C116.4 31.1515 114.813 31.4261 113.014 31.4261ZM145.131 15.4034L139.591 15.7443C139.496 15.2708 139.293 14.8447 138.98 14.4659C138.668 14.0777 138.256 13.7699 137.744 13.5426C137.242 13.3059 136.641 13.1875 135.94 13.1875C135.003 13.1875 134.212 13.3864 133.568 13.7841C132.924 14.1723 132.602 14.6932 132.602 15.3466C132.602 15.8674 132.811 16.3078 133.227 16.6676C133.644 17.0275 134.359 17.3163 135.372 17.5341L139.321 18.3295C141.442 18.7652 143.024 19.4659 144.065 20.4318C145.107 21.3977 145.628 22.6667 145.628 24.2386C145.628 25.6686 145.206 26.9233 144.364 28.0028C143.53 29.0824 142.384 29.9252 140.926 30.5312C139.477 31.1278 137.806 31.4261 135.912 31.4261C133.024 31.4261 130.723 30.8248 129.009 29.6222C127.304 28.41 126.305 26.7623 126.011 24.679L131.963 24.3665C132.143 25.2472 132.579 25.9195 133.27 26.3835C133.961 26.8381 134.847 27.0653 135.926 27.0653C136.987 27.0653 137.839 26.8617 138.483 26.4545C139.136 26.0379 139.468 25.5028 139.477 24.8494C139.468 24.3002 139.236 23.8504 138.781 23.5C138.327 23.1402 137.626 22.8655 136.679 22.6761L132.901 21.9233C130.77 21.4972 129.184 20.7585 128.142 19.7074C127.11 18.6562 126.594 17.3163 126.594 15.6875C126.594 14.286 126.973 13.0786 127.73 12.0653C128.497 11.0521 129.572 10.2708 130.955 9.72159C132.347 9.17235 133.975 8.89773 135.841 8.89773C138.597 8.89773 140.765 9.48011 142.347 10.6449C143.938 11.8097 144.866 13.3958 145.131 15.4034ZM154.921 24.7216L154.935 17.4631H155.816L162.805 9.18182H169.751L160.362 20.1477H158.927L154.921 24.7216ZM149.438 31V1.90909H155.489V31H149.438ZM163.075 31L156.654 21.4972L160.688 17.2216L170.163 31H163.075Z" fill="black" fill-opacity="0.2"/>
<path d="M0.528409 31V1.90909H19.7898V6.98011H6.67898V13.9119H18.5114V18.983H6.67898V31H0.528409ZM23.8132 31V9.18182H29.8643V31H23.8132ZM26.853 6.36932C25.9534 6.36932 25.1816 6.07102 24.5376 5.47443C23.9032 4.86837 23.5859 4.14394 23.5859 3.30114C23.5859 2.4678 23.9032 1.75284 24.5376 1.15625C25.1816 0.550188 25.9534 0.247158 26.853 0.247158C27.7526 0.247158 28.5196 0.550188 29.1541 1.15625C29.7981 1.75284 30.12 2.4678 30.12 3.30114C30.12 4.14394 29.7981 4.86837 29.1541 5.47443C28.5196 6.07102 27.7526 6.36932 26.853 6.36932ZM34.7116 31V9.18182H40.5781V12.9886H40.8054C41.2031 11.6345 41.8707 10.6117 42.8082 9.92045C43.7457 9.2197 44.8253 8.86932 46.0469 8.86932C46.3499 8.86932 46.6766 8.88826 47.027 8.92614C47.3774 8.96402 47.6851 9.0161 47.9503 9.08239V14.4517C47.6662 14.3665 47.2732 14.2907 46.7713 14.2244C46.2694 14.1581 45.8101 14.125 45.3935 14.125C44.5033 14.125 43.7079 14.3191 43.0071 14.7074C42.3158 15.0862 41.7666 15.6165 41.3594 16.2983C40.9616 16.9801 40.7628 17.7661 40.7628 18.6562V31H34.7116ZM60.0064 31.4261C57.7621 31.4261 55.8303 30.9716 54.2109 30.0625C52.6011 29.1439 51.3606 27.8466 50.4893 26.1705C49.6181 24.4848 49.1825 22.4915 49.1825 20.1903C49.1825 17.946 49.6181 15.9763 50.4893 14.2812C51.3606 12.5862 52.5869 11.2652 54.1683 10.3182C55.7592 9.37121 57.6248 8.89773 59.7649 8.89773C61.2043 8.89773 62.5443 9.12973 63.7848 9.59375C65.0348 10.0483 66.1238 10.7348 67.0518 11.6534C67.9893 12.572 68.7185 13.7273 69.2393 15.1193C69.7602 16.5019 70.0206 18.1212 70.0206 19.9773V21.6392H51.5973V17.8892H64.3246C64.3246 17.018 64.1352 16.2462 63.7564 15.5739C63.3776 14.9015 62.852 14.3759 62.1797 13.9972C61.5168 13.6089 60.745 13.4148 59.8643 13.4148C58.9458 13.4148 58.1314 13.6278 57.4212 14.054C56.7204 14.4706 56.1712 15.0341 55.7734 15.7443C55.3757 16.4451 55.1721 17.2263 55.1626 18.0881V21.6534C55.1626 22.733 55.3615 23.6657 55.7592 24.4517C56.1664 25.2377 56.7393 25.8438 57.478 26.2699C58.2166 26.696 59.0926 26.9091 60.1058 26.9091C60.7782 26.9091 61.3937 26.8144 61.9524 26.625C62.5111 26.4356 62.9893 26.1515 63.3871 25.7727C63.7848 25.3939 64.0878 24.9299 64.2962 24.3807L69.8928 24.75C69.6087 26.0947 69.0263 27.2689 68.1456 28.2727C67.2744 29.267 66.1475 30.0436 64.7649 30.6023C63.3918 31.1515 61.8056 31.4261 60.0064 31.4261ZM84.3956 31H74.0831V1.90909H84.4808C87.407 1.90909 89.9259 2.49148 92.0376 3.65625C94.1494 4.81155 95.7734 6.47348 96.9098 8.64205C98.0556 10.8106 98.6286 13.4053 98.6286 16.4261C98.6286 19.4564 98.0556 22.0606 96.9098 24.2386C95.7734 26.4167 94.1399 28.0881 92.0092 29.2528C89.888 30.4176 87.3501 31 84.3956 31ZM80.2337 25.7301H84.1399C85.9581 25.7301 87.4875 25.4081 88.728 24.7642C89.978 24.1108 90.9155 23.1023 91.5405 21.7386C92.175 20.3655 92.4922 18.5947 92.4922 16.4261C92.4922 14.2765 92.175 12.5199 91.5405 11.1562C90.9155 9.79261 89.9827 8.78883 88.7422 8.14489C87.5017 7.50095 85.9723 7.17898 84.1541 7.17898H80.2337V25.7301ZM113.014 31.4261C110.77 31.4261 108.838 30.9716 107.219 30.0625C105.609 29.1439 104.368 27.8466 103.497 26.1705C102.626 24.4848 102.19 22.4915 102.19 20.1903C102.19 17.946 102.626 15.9763 103.497 14.2812C104.368 12.5862 105.595 11.2652 107.176 10.3182C108.767 9.37121 110.633 8.89773 112.773 8.89773C114.212 8.89773 115.552 9.12973 116.793 9.59375C118.043 10.0483 119.132 10.7348 120.06 11.6534C120.997 12.572 121.726 13.7273 122.247 15.1193C122.768 16.5019 123.028 18.1212 123.028 19.9773V21.6392H104.605V17.8892H117.332C117.332 17.018 117.143 16.2462 116.764 15.5739C116.385 14.9015 115.86 14.3759 115.188 13.9972C114.525 13.6089 113.753 13.4148 112.872 13.4148C111.954 13.4148 111.139 13.6278 110.429 14.054C109.728 14.4706 109.179 15.0341 108.781 15.7443C108.384 16.4451 108.18 17.2263 108.17 18.0881V21.6534C108.17 22.733 108.369 23.6657 108.767 24.4517C109.174 25.2377 109.747 25.8438 110.486 26.2699C111.224 26.696 112.1 26.9091 113.114 26.9091C113.786 26.9091 114.402 26.8144 114.96 26.625C115.519 26.4356 115.997 26.1515 116.395 25.7727C116.793 25.3939 117.096 24.9299 117.304 24.3807L122.901 24.75C122.616 26.0947 122.034 27.2689 121.153 28.2727C120.282 29.267 119.155 30.0436 117.773 30.6023C116.4 31.1515 114.813 31.4261 113.014 31.4261ZM145.131 15.4034L139.591 15.7443C139.496 15.2708 139.293 14.8447 138.98 14.4659C138.668 14.0777 138.256 13.7699 137.744 13.5426C137.242 13.3059 136.641 13.1875 135.94 13.1875C135.003 13.1875 134.212 13.3864 133.568 13.7841C132.924 14.1723 132.602 14.6932 132.602 15.3466C132.602 15.8674 132.811 16.3078 133.227 16.6676C133.644 17.0275 134.359 17.3163 135.372 17.5341L139.321 18.3295C141.442 18.7652 143.024 19.4659 144.065 20.4318C145.107 21.3977 145.628 22.6667 145.628 24.2386C145.628 25.6686 145.206 26.9233 144.364 28.0028C143.53 29.0824 142.384 29.9252 140.926 30.5312C139.477 31.1278 137.806 31.4261 135.912 31.4261C133.024 31.4261 130.723 30.8248 129.009 29.6222C127.304 28.41 126.305 26.7623 126.011 24.679L131.963 24.3665C132.143 25.2472 132.579 25.9195 133.27 26.3835C133.961 26.8381 134.847 27.0653 135.926 27.0653C136.987 27.0653 137.839 26.8617 138.483 26.4545C139.136 26.0379 139.468 25.5028 139.477 24.8494C139.468 24.3002 139.236 23.8504 138.781 23.5C138.327 23.1402 137.626 22.8655 136.679 22.6761L132.901 21.9233C130.77 21.4972 129.184 20.7585 128.142 19.7074C127.11 18.6562 126.594 17.3163 126.594 15.6875C126.594 14.286 126.973 13.0786 127.73 12.0653C128.497 11.0521 129.572 10.2708 130.955 9.72159C132.347 9.17235 133.975 8.89773 135.841 8.89773C138.597 8.89773 140.765 9.48011 142.347 10.6449C143.938 11.8097 144.866 13.3958 145.131 15.4034ZM154.921 24.7216L154.935 17.4631H155.816L162.805 9.18182H169.751L160.362 20.1477H158.927L154.921 24.7216ZM149.438 31V1.90909H155.489V31H149.438ZM163.075 31L156.654 21.4972L160.688 17.2216L170.163 31H163.075Z" fill="black" fill-opacity="0.2"/>
</svg>
