<svg width="42" height="45" viewBox="0 0 42 45" fill="none" xmlns="http://www.w3.org/2000/svg">
<g filter="url(#filter0_d_18_3)">
<path d="M19.3334 28.3333H22.6667V18.3333H19.3334V28.3333ZM21 15C21.4723 15 21.8681 14.8403 22.1875 14.5208C22.507 14.2014 22.6667 13.8055 22.6667 13.3333C22.6667 12.8611 22.507 12.4653 22.1875 12.1458C21.8681 11.8264 21.4723 11.6666 21 11.6666C20.5278 11.6666 20.132 11.8264 19.8125 12.1458C19.4931 12.4653 19.3334 12.8611 19.3334 13.3333C19.3334 13.8055 19.4931 14.2014 19.8125 14.5208C20.132 14.8403 20.5278 15 21 15ZM21 36.6666C18.6945 36.6666 16.5278 36.2291 14.5 35.3541C12.4723 34.4791 10.7084 33.2916 9.20837 31.7916C7.70837 30.2916 6.52087 28.5278 5.64587 26.5C4.77087 24.4722 4.33337 22.3055 4.33337 20C4.33337 17.6944 4.77087 15.5278 5.64587 13.5C6.52087 11.4722 7.70837 9.70831 9.20837 8.20831C10.7084 6.70831 12.4723 5.52081 14.5 4.64581C16.5278 3.77081 18.6945 3.33331 21 3.33331C23.3056 3.33331 25.4723 3.77081 27.5 4.64581C29.5278 5.52081 31.2917 6.70831 32.7917 8.20831C34.2917 9.70831 35.4792 11.4722 36.3542 13.5C37.2292 15.5278 37.6667 17.6944 37.6667 20C37.6667 22.3055 37.2292 24.4722 36.3542 26.5C35.4792 28.5278 34.2917 30.2916 32.7917 31.7916C31.2917 33.2916 29.5278 34.4791 27.5 35.3541C25.4723 36.2291 23.3056 36.6666 21 36.6666ZM21 33.3333C24.7223 33.3333 27.875 32.0416 30.4584 29.4583C33.0417 26.875 34.3334 23.7222 34.3334 20C34.3334 16.2778 33.0417 13.125 30.4584 10.5416C27.875 7.95831 24.7223 6.66665 21 6.66665C17.2778 6.66665 14.125 7.95831 11.5417 10.5416C8.95837 13.125 7.66671 16.2778 7.66671 20C7.66671 23.7222 8.95837 26.875 11.5417 29.4583C14.125 32.0416 17.2778 33.3333 21 33.3333Z" fill="#066DA1"/>
</g>
<defs>
<filter id="filter0_d_18_3" x="-3" y="0" width="48" height="48" filterUnits="userSpaceOnUse" color-interpolation-filters="sRGB">
<feFlood flood-opacity="0" result="BackgroundImageFix"/>
<feColorMatrix in="SourceAlpha" type="matrix" values="0 0 0 0 0 0 0 0 0 0 0 0 0 0 0 0 0 0 127 0" result="hardAlpha"/>
<feOffset dy="4"/>
<feGaussianBlur stdDeviation="2"/>
<feComposite in2="hardAlpha" operator="out"/>
<feColorMatrix type="matrix" values="0 0 0 0 0 0 0 0 0 0 0 0 0 0 0 0 0 0 0.25 0"/>
<feBlend mode="normal" in2="BackgroundImageFix" result="effect1_dropShadow_18_3"/>
<feBlend mode="normal" in="SourceGraphic" in2="effect1_dropShadow_18_3" result="shape"/>
</filter>
</defs>
</svg>
